<svg xmlns="http://www.w3.org/2000/svg" fill="none" viewBox="0 0 24 24" height="24" width="24">
  <path fill="#fff" fill-rule="evenodd" d="M11.4118 0.191264c0.3507 -0.2550186 0.8257 -0.2550186 1.1764 0l11 7.999996C23.8469 8.37944 24 8.68006 24 9v14c0 0.5523 -0.4477 1 -1 1h-7c-0.5523 0 -1 -0.4477 -1 -1v-5c0 -0.7957 -0.3161 -1.5587 -0.8787 -2.1213S12.7956 15 12 15s-1.5587 0.3161 -2.12132 0.8787C9.31607 16.4413 9 17.2043 9 18v5c0 0.5523 -0.44772 1 -1 1H1c-0.552285 0 -1 -0.4477 -1 -1V9c0 -0.31994 0.153084 -0.62056 0.411828 -0.80874zM2 9.50922V22h5v-4c0 -1.3261 0.52678 -2.5979 1.46447 -3.5355C9.40215 13.5268 10.6739 13 12 13s2.5979 0.5268 3.5355 1.4645C16.4732 15.4021 17 16.6739 17 18v4h5V9.50922L12 2.2365z" clip-rule="evenodd" stroke-width="1"></path>
</svg>